<svg width="433" height="142" viewBox="0 0 433 142" fill="none" xmlns="http://www.w3.org/2000/svg">
<g clip-path="url(#clip0_5_2)">
<mask id="path-1-outside-1_5_2" maskUnits="userSpaceOnUse" x="14" y="20" width="402" height="102" fill="black">
<rect fill="white" x="14" y="20" width="402" height="102"/>
<path d="M80.6875 54.6875C79.8958 51.8125 78.6042 49.3542 76.8125 47.3125C75.0208 45.2292 72.8333 43.6458 70.25 42.5625C67.7083 41.4375 64.7708 40.875 61.4375 40.875C56.7708 40.875 52.6667 42.0417 49.125 44.375C45.625 46.7083 42.875 50.125 40.875 54.625C38.9167 59.0833 37.9375 64.4375 37.9375 70.6875C37.9375 76.9792 38.8958 82.375 40.8125 86.875C42.7708 91.3333 45.5208 94.75 49.0625 97.125C52.6458 99.4583 56.8333 100.625 61.625 100.625C65.9583 100.625 69.6875 99.8333 72.8125 98.25C75.9792 96.6667 78.375 94.4375 80 91.5625C81.6667 88.6458 82.5 85.25 82.5 81.375L86.375 81.9375H62.875V67.625H100.625V79C100.625 86.7917 98.9583 93.5833 95.625 99.375C92.2917 105.125 87.6667 109.542 81.75 112.625C75.875 115.708 69.1458 117.25 61.5625 117.25C53.1458 117.25 45.7083 115.375 39.25 111.625C32.8333 107.833 27.8333 102.438 24.25 95.4375C20.7083 88.4375 18.9375 80.2292 18.9375 70.8125C18.9375 61.2708 20.7708 53 24.4375 46C28.1458 38.9583 33.1875 33.5833 39.5625 29.875C45.9375 26.125 53.125 24.25 61.125 24.25C67.875 24.25 74.0417 25.5417 79.625 28.125C85.2083 30.7083 89.75 34.2917 93.25 38.875C96.7917 43.4583 98.9792 48.7292 99.8125 54.6875H80.6875ZM106.5 116L137.75 25.5H161.875L193.188 116H173L150.188 45.9375H149.438L126.562 116H106.5ZM173.875 80.4375V95.125H125.562V80.4375H173.875ZM222.188 116H203.438V25.5H222.188V116ZM260.688 25.5L285.875 86.8125H286.938L312.062 25.5H335.25V116H317V56.6875H316.25L292.625 115.562H280.062L256.5 56.5625H255.75V116H237.562V25.5H260.688ZM350.562 25.5H411.312V41H369.312V63H408.125V78.4375H369.312V100.5H411.438V116H350.562V25.5Z"/>
</mask>
<path d="M80.6875 54.6875C79.8958 51.8125 78.6042 49.3542 76.8125 47.3125C75.0208 45.2292 72.8333 43.6458 70.25 42.5625C67.7083 41.4375 64.7708 40.875 61.4375 40.875C56.7708 40.875 52.6667 42.0417 49.125 44.375C45.625 46.7083 42.875 50.125 40.875 54.625C38.9167 59.0833 37.9375 64.4375 37.9375 70.6875C37.9375 76.9792 38.8958 82.375 40.8125 86.875C42.7708 91.3333 45.5208 94.75 49.0625 97.125C52.6458 99.4583 56.8333 100.625 61.625 100.625C65.9583 100.625 69.6875 99.8333 72.8125 98.25C75.9792 96.6667 78.375 94.4375 80 91.5625C81.6667 88.6458 82.5 85.25 82.5 81.375L86.375 81.9375H62.875V67.625H100.625V79C100.625 86.7917 98.9583 93.5833 95.625 99.375C92.2917 105.125 87.6667 109.542 81.75 112.625C75.875 115.708 69.1458 117.25 61.5625 117.25C53.1458 117.25 45.7083 115.375 39.25 111.625C32.8333 107.833 27.8333 102.438 24.25 95.4375C20.7083 88.4375 18.9375 80.2292 18.9375 70.8125C18.9375 61.2708 20.7708 53 24.4375 46C28.1458 38.9583 33.1875 33.5833 39.5625 29.875C45.9375 26.125 53.125 24.25 61.125 24.25C67.875 24.25 74.0417 25.5417 79.625 28.125C85.2083 30.7083 89.75 34.2917 93.25 38.875C96.7917 43.4583 98.9792 48.7292 99.8125 54.6875H80.6875ZM106.5 116L137.75 25.5H161.875L193.188 116H173L150.188 45.9375H149.438L126.562 116H106.5ZM173.875 80.4375V95.125H125.562V80.4375H173.875ZM222.188 116H203.438V25.5H222.188V116ZM260.688 25.5L285.875 86.8125H286.938L312.062 25.5H335.25V116H317V56.6875H316.25L292.625 115.562H280.062L256.5 56.5625H255.75V116H237.562V25.5H260.688ZM350.562 25.5H411.312V41H369.312V63H408.125V78.4375H369.312V100.5H411.438V116H350.562V25.5Z" fill="black"/>
<path d="M80.6875 54.6875L76.831 55.7494L77.6401 58.6875H80.6875V54.6875ZM76.8125 47.3125L73.7798 49.9207L73.7928 49.9358L73.806 49.9509L76.8125 47.3125ZM70.25 42.5625L68.631 46.2202L68.6669 46.2361L68.7031 46.2513L70.25 42.5625ZM49.125 44.375L46.9244 41.0348L46.9153 41.0408L46.9062 41.0468L49.125 44.375ZM40.875 54.625L37.2198 53.0004L37.2162 53.0084L37.2127 53.0163L40.875 54.625ZM40.8125 86.875L37.1324 88.4424L37.1412 88.4631L37.1502 88.4837L40.8125 86.875ZM49.0625 97.125L46.8347 100.447L46.8571 100.462L46.8798 100.477L49.0625 97.125ZM72.8125 98.25L71.0236 94.6723L71.0141 94.677L71.0046 94.6819L72.8125 98.25ZM80 91.5625L76.527 89.5779L76.5224 89.5861L76.5177 89.5943L80 91.5625ZM82.5 81.375L83.0746 77.4165L78.5 76.7524V81.375H82.5ZM86.375 81.9375V85.9375L86.9496 77.979L86.375 81.9375ZM62.875 81.9375H58.875V85.9375H62.875V81.9375ZM62.875 67.625V63.625H58.875V67.625H62.875ZM100.625 67.625H104.625V63.625H100.625V67.625ZM95.625 99.375L99.0856 101.381L99.0918 101.37L95.625 99.375ZM81.75 112.625L79.9014 109.078L79.8912 109.083L81.75 112.625ZM39.25 111.625L37.2151 115.069L37.2282 115.076L37.2415 115.084L39.25 111.625ZM24.25 95.4375L20.6808 97.2433L20.6851 97.2518L20.6894 97.2602L24.25 95.4375ZM24.4375 46L20.8983 44.1361L20.8942 44.144L24.4375 46ZM39.5625 29.875L41.5738 33.3326L41.5822 33.3277L41.5906 33.3227L39.5625 29.875ZM79.625 28.125L81.3047 24.4947L79.625 28.125ZM93.25 38.875L90.0709 41.3027L90.0779 41.3117L90.0849 41.3208L93.25 38.875ZM99.8125 54.6875V58.6875H104.411L103.774 54.1335L99.8125 54.6875ZM84.544 53.6256C83.6077 50.2254 82.0473 47.2133 79.819 44.6741L73.806 49.9509C75.1611 51.495 76.184 53.3996 76.831 55.7494L84.544 53.6256ZM79.8452 44.7043C77.6408 42.141 74.9411 40.1923 71.7969 38.8737L68.7031 46.2513C70.7256 47.0994 72.4009 48.3173 73.7798 49.9207L79.8452 44.7043ZM71.869 38.9048C68.7263 37.5137 65.2193 36.875 61.4375 36.875V44.875C64.3223 44.875 66.6904 45.3613 68.631 46.2202L71.869 38.9048ZM61.4375 36.875C56.0702 36.875 51.1843 38.2282 46.9244 41.0348L51.3256 47.7152C54.1491 45.8551 57.4715 44.875 61.4375 44.875V36.875ZM46.9062 41.0468C42.6745 43.8679 39.4741 47.9282 37.2198 53.0004L44.5302 56.2496C46.2759 52.3218 48.5755 49.5487 51.3438 47.7032L46.9062 41.0468ZM37.2127 53.0163C34.9781 58.1037 33.9375 64.0345 33.9375 70.6875H41.9375C41.9375 64.8405 42.8552 60.063 44.5373 56.2337L37.2127 53.0163ZM33.9375 70.6875C33.9375 77.3701 34.9536 83.3269 37.1324 88.4424L44.4926 85.3076C42.8381 81.4231 41.9375 76.5883 41.9375 70.6875H33.9375ZM37.1502 88.4837C39.3697 93.5366 42.5758 97.5912 46.8347 100.447L51.2903 93.8028C48.4658 91.9088 46.1719 89.1301 44.4748 85.2663L37.1502 88.4837ZM46.8798 100.477C51.189 103.283 56.1549 104.625 61.625 104.625V96.625C57.5117 96.625 54.1026 95.6337 51.2452 93.773L46.8798 100.477ZM61.625 104.625C66.4405 104.625 70.8178 103.745 74.6204 101.818L71.0046 94.6819C68.5572 95.9219 65.4762 96.625 61.625 96.625V104.625ZM74.6014 101.828C78.4262 99.9153 81.4369 97.1494 83.4823 93.5307L76.5177 89.5943C75.3131 91.7256 73.5321 93.418 71.0236 94.6723L74.6014 101.828ZM83.473 93.5471C85.535 89.9385 86.5 85.8379 86.5 81.375H78.5C78.5 84.6621 77.7984 87.3531 76.527 89.5779L83.473 93.5471ZM81.9254 85.3335L85.8004 85.896L86.9496 77.979L83.0746 77.4165L81.9254 85.3335ZM86.375 77.9375H62.875V85.9375H86.375V77.9375ZM66.875 81.9375V67.625H58.875V81.9375H66.875ZM62.875 71.625H100.625V63.625H62.875V71.625ZM96.625 67.625V79H104.625V67.625H96.625ZM96.625 79C96.625 86.2087 95.088 92.2892 92.1582 97.3797L99.0918 101.37C102.829 94.8775 104.625 87.3746 104.625 79H96.625ZM92.1644 97.3689C89.213 102.46 85.1483 106.343 79.9014 109.078L83.5986 116.172C90.185 112.74 95.3703 107.79 99.0856 101.381L92.1644 97.3689ZM79.8912 109.083C74.6668 111.825 68.5916 113.25 61.5625 113.25V121.25C69.7001 121.25 77.0832 119.592 83.6088 116.167L79.8912 109.083ZM61.5625 113.25C53.7599 113.25 47.0323 111.518 41.2585 108.166L37.2415 115.084C44.3844 119.232 52.5318 121.25 61.5625 121.25V113.25ZM41.2849 108.181C35.5566 104.796 31.0689 99.9799 27.8106 93.6148L20.6894 97.2602C24.5978 104.895 30.1101 110.87 37.2151 115.069L41.2849 108.181ZM27.8192 93.6317C24.6121 87.2929 22.9375 79.7263 22.9375 70.8125H14.9375C14.9375 80.7321 16.8046 89.5821 20.6808 97.2433L27.8192 93.6317ZM22.9375 70.8125C22.9375 61.7844 24.6703 54.1761 27.9808 47.856L20.8942 44.144C16.8714 51.8239 14.9375 60.7573 14.9375 70.8125H22.9375ZM27.9767 47.8638C31.3641 41.4316 35.8989 36.6336 41.5738 33.3326L37.5512 26.4174C30.4761 30.533 24.9276 36.4851 20.8983 44.1362L27.9767 47.8638ZM41.5906 33.3227C47.301 29.9637 53.778 28.25 61.125 28.25V20.25C52.472 20.25 44.574 22.2863 37.5344 26.4273L41.5906 33.3227ZM61.125 28.25C67.3519 28.25 72.9378 29.4384 77.9453 31.7553L81.3047 24.4947C75.1455 21.645 68.3981 20.25 61.125 20.25V28.25ZM77.9453 31.7553C82.9791 34.0843 86.9918 37.2705 90.0709 41.3027L96.4291 36.4473C92.5082 31.3129 87.4376 27.3324 81.3047 24.4947L77.9453 31.7553ZM90.0849 41.3208C93.1842 45.3318 95.1102 49.9445 95.8511 55.2415L103.774 54.1335C102.848 47.5138 100.399 41.5849 96.4151 36.4292L90.0849 41.3208ZM99.8125 50.6875H80.6875V58.6875H99.8125V50.6875ZM106.5 116L102.719 114.694L100.887 120H106.5V116ZM137.75 25.5V21.5H134.899L133.969 24.1944L137.75 25.5ZM161.875 25.5L165.655 24.1921L164.724 21.5H161.875V25.5ZM193.188 116V120H198.804L196.968 114.692L193.188 116ZM173 116L169.197 117.238L170.096 120H173V116ZM150.188 45.9375L153.991 44.6991L153.092 41.9375H150.188V45.9375ZM149.438 45.9375V41.9375H146.536L145.635 44.696L149.438 45.9375ZM126.562 116V120H129.464L130.365 117.241L126.562 116ZM173.875 80.4375H177.875V76.4375H173.875V80.4375ZM173.875 95.125V99.125H177.875V95.125H173.875ZM125.562 95.125H121.562V99.125H125.562V95.125ZM125.562 80.4375V76.4375H121.562V80.4375H125.562ZM110.281 117.306L141.531 26.8056L133.969 24.1944L102.719 114.694L110.281 117.306ZM137.75 29.5H161.875V21.5H137.75V29.5ZM158.095 26.8079L189.407 117.308L196.968 114.692L165.655 24.1921L158.095 26.8079ZM193.188 112H173V120H193.188V112ZM176.803 114.762L153.991 44.6991L146.384 47.1759L169.197 117.238L176.803 114.762ZM150.188 41.9375H149.438V49.9375H150.188V41.9375ZM145.635 44.696L122.76 114.759L130.365 117.241L153.24 47.179L145.635 44.696ZM126.562 112H106.5V120H126.562V112ZM169.875 80.4375V95.125H177.875V80.4375H169.875ZM173.875 91.125H125.562V99.125H173.875V91.125ZM129.562 95.125V80.4375H121.562V95.125H129.562ZM125.562 84.4375H173.875V76.4375H125.562V84.4375ZM222.188 116V120H226.188V116H222.188ZM203.438 116H199.438V120H203.438V116ZM203.438 25.5V21.5H199.438V25.5H203.438ZM222.188 25.5H226.188V21.5H222.188V25.5ZM222.188 112H203.438V120H222.188V112ZM207.438 116V25.5H199.438V116H207.438ZM203.438 29.5H222.188V21.5H203.438V29.5ZM218.188 25.5V116H226.188V25.5H218.188ZM260.688 25.5L264.387 23.98L263.369 21.5H260.688V25.5ZM285.875 86.8125L282.175 88.3325L283.194 90.8125H285.875V86.8125ZM286.938 86.8125V90.8125H289.621L290.639 88.3292L286.938 86.8125ZM312.062 25.5V21.5H309.379L308.361 23.9833L312.062 25.5ZM335.25 25.5H339.25V21.5H335.25V25.5ZM335.25 116V120H339.25V116H335.25ZM317 116H313V120H317V116ZM317 56.6875H321V52.6875H317V56.6875ZM316.25 56.6875V52.6875H313.545L312.538 55.1979L316.25 56.6875ZM292.625 115.562V119.562H295.33L296.337 117.052L292.625 115.562ZM280.062 115.562L276.348 117.046L277.353 119.562H280.062V115.562ZM256.5 56.5625L260.215 55.079L259.21 52.5625H256.5V56.5625ZM255.75 56.5625V52.5625H251.75V56.5625H255.75ZM255.75 116V120H259.75V116H255.75ZM237.562 116H233.562V120H237.562V116ZM237.562 25.5V21.5H233.562V25.5H237.562ZM256.988 27.02L282.175 88.3325L289.575 85.2925L264.387 23.98L256.988 27.02ZM285.875 90.8125H286.938V82.8125H285.875V90.8125ZM290.639 88.3292L315.764 27.0167L308.361 23.9833L283.236 85.2958L290.639 88.3292ZM312.062 29.5H335.25V21.5H312.062V29.5ZM331.25 25.5V116H339.25V25.5H331.25ZM335.25 112H317V120H335.25V112ZM321 116V56.6875H313V116H321ZM317 52.6875H316.25V60.6875H317V52.6875ZM312.538 55.1979L288.913 114.073L296.337 117.052L319.962 58.1771L312.538 55.1979ZM292.625 111.562H280.062V119.562H292.625V111.562ZM283.777 114.079L260.215 55.079L252.785 58.046L276.348 117.046L283.777 114.079ZM256.5 52.5625H255.75V60.5625H256.5V52.5625ZM251.75 56.5625V116H259.75V56.5625H251.75ZM255.75 112H237.562V120H255.75V112ZM241.562 116V25.5H233.562V116H241.562ZM237.562 29.5H260.688V21.5H237.562V29.5ZM350.562 25.5V21.5H346.562V25.5H350.562ZM411.312 25.5H415.312V21.5H411.312V25.5ZM411.312 41V45H415.312V41H411.312ZM369.312 41V37H365.312V41H369.312ZM369.312 63H365.312V67H369.312V63ZM408.125 63H412.125V59H408.125V63ZM408.125 78.4375V82.4375H412.125V78.4375H408.125ZM369.312 78.4375V74.4375H365.312V78.4375H369.312ZM369.312 100.5H365.312V104.5H369.312V100.5ZM411.438 100.5H415.438V96.5H411.438V100.5ZM411.438 116V120H415.438V116H411.438ZM350.562 116H346.562V120H350.562V116ZM350.562 29.5H411.312V21.5H350.562V29.5ZM407.312 25.5V41H415.312V25.5H407.312ZM411.312 37H369.312V45H411.312V37ZM365.312 41V63H373.312V41H365.312ZM369.312 67H408.125V59H369.312V67ZM404.125 63V78.4375H412.125V63H404.125ZM408.125 74.4375H369.312V82.4375H408.125V74.4375ZM365.312 78.4375V100.5H373.312V78.4375H365.312ZM369.312 104.5H411.438V96.5H369.312V104.5ZM407.438 100.5V116H415.438V100.5H407.438ZM411.438 112H350.562V120H411.438V112ZM354.562 116V25.5H346.562V116H354.562Z" fill="white" mask="url(#path-1-outside-1_5_2)"/>
</g>
<defs>
<clipPath id="clip0_5_2">
<rect width="433" height="142" fill="white"/>
</clipPath>
</defs>
</svg>
